<?xml version="1.0" encoding="UTF-8"?>
<!DOCTYPE svg PUBLIC "-//W3C//DTD SVG 1.1//EN" "http://www.w3.org/Graphics/SVG/1.1/DTD/svg11.dtd">
<!-- Creator: CorelDRAW -->
<svg xmlns="http://www.w3.org/2000/svg" xml:space="preserve" width="215.9mm" height="279.4mm" version="1.1" style="shape-rendering:geometricPrecision; text-rendering:geometricPrecision; image-rendering:optimizeQuality; fill-rule:evenodd; clip-rule:evenodd"
viewBox="0 0 21590 27940"
 xmlns:xlink="http://www.w3.org/1999/xlink"
 xmlns:xodm="http://www.corel.com/coreldraw/odm/2003">
 <defs>
  <style type="text/css">
   <![CDATA[
    .fil0 {fill:#2D2C32}
    .fil1 {fill:#FA313C}
   ]]>
  </style>
 </defs>
 <g id="Capa_x0020_1">
  <metadata id="CorelCorpID_0Corel-Layer"/>
  <g id="_2047959917776">
   <path class="fil0" d="M10145.56 14616.04c-335.61,-228.47 -1967.93,65.7 -2163.04,-161.97 -136.14,-158.86 150.49,-659.05 234.25,-840.1l1796.49 -3918.79c138.33,-299.63 180.88,-570.06 568.75,-582.04l2294.39 -14.16c399.01,-1.26 776.37,-34.86 518.02,450.22 -271.71,510.2 -543.21,960.38 -832.01,1461.48 -142.47,247.18 -289.34,492.56 -425.77,737.91 -94.34,169.66 -428.6,588.8 -237.47,731.79 210.89,192.46 1950.31,-102.87 2168.82,84.41 260.04,210.69 -186.38,567.38 -284.43,689.51 -160.8,200.29 -339.64,394.82 -504.86,589.12 -171.83,202.06 -337.81,400.48 -508.31,585.42 -1194.55,1295.71 -2391.55,2769.38 -3562.49,4092.56 -77.75,87.86 -164.76,239.43 -298.02,267.63 -151.36,32.02 -267.88,-77.82 -251.47,-221.78l935.46 -2340.71c105.18,-260.35 201.5,-512.59 308.97,-785.94 84.6,-215.16 296.04,-592.53 242.72,-824.56zm-5453.61 -4526.6l0 7761.12c0,682.37 214.76,1205.71 554.74,1561.92 319.54,334.81 849.44,625.3 1491.37,625.3l7972.77 0c1548.94,0 2222.5,-1009.91 2222.5,-2575.28l0 -7126.11c0,-1316.44 -693.73,-2434.17 -2046.11,-2434.17l-7902.22 0c-1389.55,0 -2293.05,803.06 -2293.05,2187.22z"/>
  </g>
  <path class="fil1" d="M10145.56 14616.04c53.32,232.03 -158.12,609.4 -242.72,824.56 -107.47,273.35 -203.79,525.59 -308.97,785.94l-935.46 2340.71c-16.41,143.96 100.11,253.8 251.47,221.78 133.26,-28.2 220.27,-179.77 298.02,-267.63 1170.94,-1323.18 2367.94,-2796.85 3562.49,-4092.56 170.5,-184.94 336.48,-383.36 508.31,-585.42 165.22,-194.3 344.06,-388.83 504.86,-589.12 98.05,-122.13 544.47,-478.82 284.43,-689.51 -218.51,-187.28 -1957.93,108.05 -2168.82,-84.41 -191.13,-142.99 143.13,-562.13 237.47,-731.79 136.43,-245.35 283.3,-490.73 425.77,-737.91 288.8,-501.1 560.3,-951.28 832.01,-1461.48 258.35,-485.08 -119.01,-451.48 -518.02,-450.22l-2294.39 14.16c-387.87,11.98 -430.42,282.41 -568.75,582.04l-1796.49 3918.79c-83.76,181.05 -370.39,681.24 -234.25,840.1 195.11,227.67 1827.43,-66.5 2163.04,161.97z"/>
 </g>
</svg>
